<?xml version="1.0" encoding="UTF-8"?>
<svg version="1.1" viewBox="0 0 2048 813" width="340" height="135" xmlns="http://www.w3.org/2000/svg">
<path transform="translate(256,254)" d="m0 0h25l18 2 19 5 16 7 14 8 14 11 13 13 10 13 10 17 7 17 5 18 3 19 1 10v26l-3 23-6 23-7 16-9 16-10 13-10 11-11 9-10 7-16 9-15 6-19 5-19 3-12 1h-16l-22-2-14-2-2-1v96l-10 7-23 14-22 14-26 16-16 10h-1v-388l26-16 22-14 38-24 19-10 13-4 16-3zm-10 73-17 2-14 4-4 3v148l12 3 13 2h15l12-3 15-8 12-11 9-14 5-11 4-15 2-16v-10l-2-17-4-14-8-16-9-11-10-8-10-5-7-2z" fill="#fff"/>
<path transform="translate(725,135)" d="m0 0 3 1v355l-5 4-23 14-25 16-19 12-21 13-16 7-20 5-13 2h-34l-25-5-16-6-17-9-13-10-19-19-10-14-8-14-6-15-6-20-3-21v-39l3-19 4-15 6-16 9-17 10-14 11-12 9-9 15-11 21-11 18-6 20-4 8-1h40l23 3 3 1v-64l7-6 17-10 14-9 24-15 19-12 14-9zm-132 194-13 2-10 4-11 8-7 6-10 14-7 15-4 17-1 8v21l4 20 5 12 6 10 9 10 8 7 13 6 10 2h13l25-5 5-3 1-52v-94l-2-3-16-4-9-1z" fill="#fff"/>
<path transform="translate(1059,256)" d="m0 0h18l21 2 19 4 20 7 19 10 16 12 12 11 11 13 8 13 8 16 7 21 4 21 2 18v13l-3 25-5 21-6 16-7 14-7 11-9 11-8 9-11 9-13 9-16 8-18 7-22 5-14 2h-37l-19-3-21-6-17-7-14-8-12-9-12-11-12-14-11-18-7-15-6-18-4-19-1-7v-36l3-19 6-21 7-16 9-16 8-11 11-12 7-7 15-11 18-10 15-6 20-5 13-2zm6 73-16 2-12 5-10 6-11 11-8 13-5 14-3 12-1 7v25l4 19 7 16 7 10 10 10 12 7 13 4 6 1h21l12-3 16-8 12-11 9-14 5-14 3-14 1-11-1-21-3-14-5-14-7-12-9-10-9-7-14-6-16-3z" fill="#fff"/>
<path transform="translate(1381,256)" d="m0 0h18l22 2 22 5 19 7 15 8 14 10 14 12 9 10 10 15 10 19 7 21 4 18 1 8v38l-4 23-5 17-8 18-9 15-9 12-8 9-11 9-11 8-14 8-15 6-20 6-24 4h-37l-24-4-17-5-18-8-14-8-11-9-10-9-11-12-10-15-11-23-6-20-3-17-1-9v-31l4-25 8-24 8-16 9-14 8-10 9-10 15-12 15-9 15-7 18-6 23-4zm6 73-15 2-13 5-10 7-7 6-9 13-7 16-3 12-1 7v28l3 15 6 16 7 11 7 8 13 9 13 5 10 2h20l12-3 10-4 13-9 9-10 8-16 4-12 2-12v-28l-3-16-6-16-7-11-9-10-10-7-12-5-16-3z" fill="#fff"/>
<path transform="translate(859,55)" d="m0 0h1v123l-1 28 15-9 24-15 10-7h3v102l-5 5-24 15-19 11-2 1v137l2 9 5 8 5 4 9 4 9 2 9 1 1 4v86l-1 1-30-1-23-4-18-6-16-8-10-8-10-9-10-13-8-14-6-15-4-15-2-12-1-12v-331l4-4 22-13 17-11 26-16 17-11z" fill="#fff"/>
<path transform="translate(1668,31)" d="m0 0 2 1v470l-5 5-20 12-17 11-19 12-21 13-12 8-3 1-1-6v-464l2-4 23-14 22-14 23-14 23-15z" fill="#fff"/>
<path transform="translate(1795,256)" d="m0 0h38l19 2 20 4 20 7 14 6v4l-19 12-24 15-19 12-16 9-21 2-13 4-5 4-3 5v7l4 7 10 7 21 10 31 13 16 8 13 8 10 8 8 8 7 11 5 11 4 14 1 7v22l-3 16-6 14-9 13-10 10-13 9-21 10-21 6-18 3h-43l-25-4-21-6-16-6-16-7-2-3 11-8 20-12 17-11 19-12 5-3h32l15-3 9-5 4-4 1-5-3-9-5-5-10-6-15-7-36-15-21-11-11-8-10-9-9-13-6-13-4-14-1-8v-20l3-14 5-13 7-11 11-12 8-7 11-7 14-7 18-6 15-3z" fill="#fff"/>
<path transform="translate(972,624)" d="m0 0h57l11 2 8 5 8 9 3 7v13l-3 5 14 14 6 11 1 12-4 13-6 8-7 6-10 4-9 1h-68l-1-1-1-21v-27zm24 20v19h36l3-1v-9l-2-7-7-2zm1 37-1 1v32h44l7-3 4-5 1-3v-10l-5-8-9-3z" fill="#fff"/>
<path transform="translate(744,624)" d="m0 0h53l12 3 8 5 8 8 5 9 1 4v16l-5 10-8 9-9 5 16 17 14 15 6 9-2 1h-12l-11-1-4-2-7-8-14-14-7-8-5-4-3-1-12-1v37l-1 1h-22l-2-6v-95zm24 20v32l1 1h25l8-4 4-5 1-3v-9l-5-8-5-3-4-1z" fill="#fff"/>
<path transform="translate(1094,624)" d="m0 0h53l12 3 9 6 8 8 4 8 2 13-3 12-7 10-6 5-6 3 2 4 15 16 12 13 6 9-3 1h-11l-11-1-4-2-7-8-14-14-7-8-5-4-3-1-12-1v37l-1 1h-22l-1-1-1-62v-21zm25 20-1 1v31l1 1h25l8-4 5-7v-9l-4-8-6-4-4-1z" fill="#fff"/>
<path transform="translate(1237,624)" d="m0 0h29l5 8 9 26 19 49 8 22v5h-24l-7-18-6-1h-40l-2 1-7 18h-24l1-8 9-25 16-42 13-34zm13 26-11 33-4 9v2l20 1h13l-3-10-9-27-4-8z" fill="#fff"/>
<path transform="translate(887,624)" d="m0 0h28l4 4 16 43 13 34 9 24v5h-23l-3-4-4-13v-2h-47l-3 3-4 9-2 7-23 1-1-5 9-27 12-31 14-37 4-10zm13 26-11 33-4 11 19 1h14l-3-10-8-24-5-11z" fill="#fff"/>
<path transform="translate(436,624)" d="m0 0h22l2 2v76l3 8 7 4 5 1h12l7-3 5-2 1-6 1-79 1-1h22l1 1 1 7v42l-1 33-3 10-6 8-9 6-11 4-6 1h-21l-12-3-10-6-7-8-4-9-1-6v-79z" fill="#fff"/>
<path transform="translate(1346,622)" d="m0 0h20l12 4 10 7 6 9 3 8v5l-2 2-19 1-4-4-4-7-5-3h-14l-6 3-3 5 1 7 5 4 8 4 23 8 11 6 9 9 4 9v10l-4 10-8 9-12 6-8 2-15 1-14-2-10-4-9-7-6-10-2-6 1-7 19-1 4 3 3 6 4 4 7 2h13l10-5 2-5-4-8-10-5-24-8-11-6-5-4-5-8-2-7v-10l4-10 5-7 9-6z" fill="#fff"/>
<path transform="translate(366,622)" d="m0 0h20l10 3 10 6 8 10 3 10v5l-2 1h-21l-5-10-6-3h-14l-7 4-2 4 1 7 8 6 28 10 11 6 8 7 4 8 1 3v9l-3 9-7 9-9 6-13 4-16 1-16-3-10-5-8-8-5-10-2-7 1-3 22-1 6 10 6 4 5 1h12l10-5 2-3-1-6-5-5-8-4-24-8-11-6-7-7-3-5-2-8v-8l3-9 6-9 9-6z" fill="#fff"/>
<path transform="translate(1694,622)" d="m0 0h21l10 3 10 6 7 8 4 10v7l-3 1h-19l-3-3-3-6-3-3-3-1h-14l-6 3-3 6 2 7 10 6 30 11 10 7 7 9 2 6v10l-4 10-7 8-8 5-13 4h-23l-11-3-8-4-6-5-5-8-2-6v-9l3-1h16l5 5 3 5 6 4 5 1h12l9-4 3-4-1-6-4-5-12-5-18-6-14-7-5-4-4-6-3-11 1-11 5-10 5-5 9-6z" fill="#fff"/>
<path transform="translate(1578,624)" d="m0 0h71l1 1v18l-1 2h-46l-1 22 4 1 39 1 1 1v18l-14 1h-25l-5-1v25l47 1 2 4v16l-36 1h-15l-22-1z" fill="#fff"/>
<path transform="translate(652,624)" d="m0 0h72v20l-1 1h-29l-17-1-1 24h17l27 1v19l-43 1-1 25h47l2 1 1 9v9l-1 1h-72l-1-1z" fill="#fff"/>
<path transform="translate(548,624)" d="m0 0h52l10 2 8 4 10 9 5 9 2 4v16l-4 10-11 12-11 5-10 2-27 1-1 36h-22l-1-1-1-14zm24 20v33h26l8-4 4-5 1-10-4-9-6-4-4-1z" fill="#fff"/>
<path transform="translate(1456,624)" d="m0 0h24l4 8 12 36 10 32 2 7 3-3 16-48 11-31 1-1h23l3 2-9 24-15 42-15 39-3 3h-27l-3-4-12-31-18-50-8-24z" fill="#fff"/>
<path transform="translate(1418,624)" d="m0 0h21l2 1v108l-1 1h-20l-3-2v-107z" fill="#fff"/>
</svg>
